# xmcd
#
# Track frame offsets:
#	150
#	36429
#	82552
#	114408
#	140175
#	178875
#	208242
#
# Disc length: 3151 seconds
#
# Revision: 1
# Processed by: cddbd v1.5.2PL0 Copyright (c) Steve Scherf et al.
# Submitted via: audiograbber 1.83.01
#
DISCID=620c4d07
DTITLE=The Sensational Alex Harvey Band - Zalvation CD 2
DYEAR=2006
DGENRE=Rock
TTITLE0=Compliments to the Chef
TTITLE1=The Man in the Jar
TTITLE2=Hammer Song
TTITLE3=Action Strasse
TTITLE4=Vambo
TTITLE5=Boston Tea Party
TTITLE6=Delilah
EXTD=
EXTT0=
EXTT1=
EXTT2=
EXTT3=
EXTT4=
EXTT5=
EXTT6=
PLAYORDER=
